<?xml version="1.0" encoding="UTF-8"?>
<svg width="1200pt" height="1200pt" version="1.1" viewBox="0 0 1200 1200" xmlns="http://www.w3.org/2000/svg">
 <path d="m855.35 344.66c-141.02-141.02-369.66-141.02-510.68 0-141.02 141.02-141.02 369.66 0 510.68 141.01 141.01 369.66 141.02 510.68 0 141.02-141.02 141.01-369.67 0-510.68zm-357.31 140.32h-56.566c-8.3867 0-15.18-6.793-15.18-15.18 0-93.504 77.762-178.57 172.46-178.57 80.93 0 166.7 55.922 174.2 143 5.4727 63.48-17.629 94.164-44.27 129.57-29.242 38.855-63.312 84.145-60.191 197.4 0.66016 9.6484-6.2539 16.836-15.086 16.836h-56.566c-8.3984 0-14.988-6.4688-15.18-15.445-7.8008-143.76 39.156-206.48 73.031-251.73 16.043-21.434 28.703-38.34 28.367-56.988-1.0547-59.051-92.074-97.246-144.78-44.543-15.48 15.48-25.055 36.863-25.055 60.48 0 8.3867-6.793 15.18-15.18 15.18zm127.08 313.21c49.094 0 73.848 59.641 39.098 94.391-34.754 34.754-94.391 9.9961-94.391-39.098 0-30.539 24.758-55.297 55.297-55.297z" fill="#4f006b" fill-rule="evenodd"/>
 <path d="m918.57 281.43c-175.95-175.95-461.22-175.95-637.15 0-175.93 175.95-175.95 461.22 0 637.15s461.22 175.95 637.15 0c175.93-175.95 175.95-461.22 0-637.15zm-318.57-72.887c216.19 0 391.46 175.27 391.46 391.46s-175.27 391.46-391.46 391.46-391.46-175.27-391.46-391.46c0-216.2 175.27-391.47 391.46-391.47z" fill="#4f006b" fill-rule="evenodd"/>
 <path d="m981.82 218.18c-210.86-210.86-552.77-210.86-763.63 0-210.86 210.86-210.86 552.77 0 763.63 210.86 210.86 552.77 210.86 763.63 0 210.86-210.86 210.86-552.77 0-763.63zm-381.82-99.086c265.59 0 480.9 215.3 480.9 480.9 0 265.6-215.3 480.9-480.9 480.9-265.6 0.003907-480.9-215.31-480.9-480.89s215.31-480.9 480.9-480.9z" fill="#4f006b" fill-rule="evenodd"/>
 <path d="m642.73 835.85c-15.66-15.66-42.562-4.5234-42.562 17.629 0 22.152 26.902 33.289 42.562 17.629 9.7305-9.7305 9.7305-25.535 0-35.27z" fill="#4f006b" fill-rule="evenodd"/>
 <path d="m457.45 454.62h26.375c7.4766-57.168 56.387-100.71 114.9-100.71 56.426 0 113.48 40.836 114.54 99.48 0.51562 28.945-14.879 49.523-34.414 75.613-30.035 40.117-71.258 95.207-67.535 218.68h26.699c-0.25391-113.36 35.555-160.96 66.457-202.02 22.883-30.406 42.719-56.773 38.219-108.94-6.0859-70.57-78.168-115.13-143.96-115.13-72.742 0-133.61 62.125-141.28 133.03z" fill="#4f006b" fill-rule="evenodd"/>
</svg>
